<?xml version="1.0" encoding="utf-8"?>
<!-- Generator: Adobe Illustrator 25.0.1, SVG Export Plug-In . SVG Version: 6.00 Build 0)  -->
<svg version="1.0" id="katman_1" xmlns="http://www.w3.org/2000/svg" xmlns:xlink="http://www.w3.org/1999/xlink" x="0px" y="0px"
	 viewBox="0 0 1374 1080" style="enable-background:new 0 0 1374 1080;" xml:space="preserve">
<style type="text/css">
	.st0{fill-rule:evenodd;clip-rule:evenodd;fill:#FFBE12;}
	.st1{fill-rule:evenodd;clip-rule:evenodd;fill:#F0A902;}
	.st2{fill-rule:evenodd;clip-rule:evenodd;fill:#D88800;}
</style>
<desc>Created with Sketch.</desc>
<g id="media_telegram">
	<g id="Group-50-Copy" transform="translate(9.000000, 11.000000)">
		<g id="Group-54" transform="translate(0.598291, 0.666667)">
			<path id="Fill-20" class="st0" d="M1050.2,240.1L932.4,813.7c0,0-16.5,39.8-61.8,20.7l-272-201.3L499.7,587l-166.5-54.1
				c0,0-25.5-8.8-28-27.9c-2.5-19.1,28.8-29.4,28.8-29.4l661.8-250.7C995.8,224.9,1050.2,201.9,1050.2,240.1"/>
			<path id="Fill-22" class="st1" d="M577.7,807.3c0,0-7.9-0.7-17.8-31C550,746.1,499.7,587,499.7,587l399.7-245.1
				c0,0,23.1-13.5,22.3,0c0,0,4.1,2.4-8.2,13.5c-12.4,11.1-314,272.9-314,272.9"/>
			<path id="Fill-24" class="st2" d="M702.9,710.3L595.3,805c0,0-8.4,6.2-17.6,2.3l20.6-175.9"/>
		</g>
	</g>
</g>
</svg>
